#!OML:ASF F:\VICON\USERDATA\INSTALL\rory3\rory3.ASF
:FULLY-SPECIFIED
:DEGREES
381
root -0.383171 25.506 2.9372 -172.723 -5.52744 -180.696
lowerback 8.32478 1.35299 -2.48725
upperback 0.494277 1.55245 0.749201
thorax -4.24462 0.802573 1.99317
lowerneck -16.8924 1.71928 -9.27648
upperneck 36.862 1.86347 1.80948
head 15.7624 -1.36003 2.44141
rclavicle 3.63776e-014 -1.39149e-015
rhumerus -27.6257 -6.59011 -74.7189
rradius 44.0376
rwrist 16.7134
rhand -21.365 2.99115
rfingers 7.12502
rthumb 5.02188 -26.9293
lclavicle 3.63776e-014 -1.39149e-015
lhumerus -31.0538 5.36077 81.4961
lradius 38.2606
lwrist -2.92013
lhand -13.1046 25.9892
lfingers 7.12502
lthumb 12.9923 55.5646
rfemur -0.438236 0.251916 27.516
rtibia 7.95139e-015
rfoot -4.63091 -5.64068
rtoes 20.3642
lfemur -70.7757 4.69242 -23.2363
ltibia 106.292
lfoot -14.9337 -17.892
ltoes -20.2262
382
root -0.389375 25.4992 2.89819 -172.75 -5.38493 -180.736
lowerback 8.34756 1.39686 -2.44959
upperback 0.460494 1.61231 0.690331
thorax -4.29299 0.832408 1.90264
lowerneck -16.8258 1.78181 -9.28181
upperneck 36.8899 1.90801 1.8997
head 15.7532 -1.33407 2.48787
rclavicle 2.13694e-015 -2.78299e-015
rhumerus -27.5467 -6.5091 -74.8852
rradius 44.1254
rwrist 16.7484
rhand -21.3348 3.11789
rfingers 7.12502
rthumb 5.0511 -26.8019
lclavicle 2.13694e-015 -2.78299e-015
lhumerus -31.1898 5.29405 81.4642
lradius 38.4181
lwrist -2.9277
lhand -13.0018 26.0703
lfingers 7.12502
lthumb 13.0915 55.6394
rfemur -0.269732 0.349659 27.4539
rtibia -7.95139e-015
rfoot -4.7356 -5.48857
rtoes 20.0357
lfemur -71.49 4.65179 -23.8165
ltibia 105.306
lfoot -15.1464 -17.7032
ltoes -21.0645
383
root -0.401651 25.4891 2.86561 -172.695 -5.37083 -180.891
lowerback 8.34358 1.40132 -2.43442
upperback 0.440341 1.61777 0.625311
thorax -4.30965 0.835033 1.82569
lowerneck -16.8587 1.80364 -9.36835
upperneck 36.9221 1.94242 1.98951
head 15.7708 -1.3209 2.54867
rclavicle -1.0138e-014 -3.77691e-015
rhumerus -27.3615 -6.40103 -74.9857
rradius 44.2459
rwrist 16.8085
rhand -21.3259 3.24828
rfingers 7.12502
rthumb 5.05971 -26.6713
lclavicle -1.0138e-014 -3.77691e-015
lhumerus -31.1854 5.33706 81.5116
lradius 38.4502
lwrist -3.02102
lhand -12.7881 26.1238
lfingers 7.12502
lthumb 13.2974 55.6796
rfemur -0.181187 0.313133 27.2525
rtibia 3.18055e-015
rfoot -4.89182 -5.36983
rtoes 19.4812
lfemur -72.1771 4.35763 -24.5029
ltibia 104.229
lfoot -15.0876 -17.2943
ltoes -21.0745
384
root -0.400759 25.4745 2.8274 -172.885 -5.29468 -180.765
lowerback 8.49643 1.44295 -2.37794
upperback 0.541945 1.67302 0.702722
thorax -4.29309 0.858172 1.86584
lowerneck -16.9053 1.77237 -9.56732
upperneck 36.8721 1.9215 2.17089
head 15.752 -1.3227 2.65978
rclavicle 9.79014e-015 3.37934e-015
rhumerus -27.0202 -6.25273 -75.0958
rradius 44.2971
rwrist 16.8214
rhand -21.5169 3.2893
rfingers 7.12502
rthumb 4.87525 -26.6346
lclavicle 9.79014e-015 3.37934e-015
lhumerus -30.9993 5.57057 81.5735
lradius 38.317
lwrist -3.1558
lhand -12.8679 25.9204
lfingers 7.12502
lthumb 13.2206 55.4812
rfemur 0.147844 0.350849 27.4123
rtibia -7.95139e-015
rfoot -5.06554 -5.28447
rtoes 19.5476
lfemur -72.6671 4.39028 -24.7862
ltibia 103.158
lfoot -14.937 -17.0931
ltoes -20.3002
385
root -0.404146 25.46 2.79106 -172.964 -5.21141 -180.616
lowerback 8.56966 1.45916 -2.25825
upperback 0.556004 1.70585 0.772311
thorax -4.31974 0.872127 1.86545
lowerneck -16.7484 1.76943 -9.6239
upperneck 36.7417 1.92146 2.178
head 15.649 -1.31993 2.66914
rclavicle 1.14301e-015 1.39149e-015
rhumerus -26.9152 -6.02346 -75.2285
rradius 44.5178
rwrist 16.8081
rhand -21.4929 3.094
rfingers 7.12502
rthumb 4.89845 -26.8294
lclavicle 1.14301e-015 1.39149e-015
lhumerus -30.9621 5.84899 81.6023
lradius 38.1983
lwrist -3.24042
lhand -13.0421 25.8868
lfingers 7.12502
lthumb 13.0526 55.4584
rfemur 0.359513 0.41107 27.5757
rtibia 3.97569e-015
rfoot -5.17772 -5.18563
rtoes 19.7621
lfemur -73.1928 4.37201 -25.0792
ltibia 102.034
lfoot -14.9384 -16.691
ltoes -20.207
386
root -0.410052 25.4522 2.74958 -172.944 -5.11656 -180.607
lowerback 8.52009 1.4841 -2.22293
upperback 0.526066 1.74514 0.773103
thorax -4.32407 0.892 1.84216
lowerneck -16.6828 1.79395 -9.56081
upperneck 36.8276 1.94701 2.04131
head 15.6783 -1.33462 2.60135
rclavicle -2.74323e-014 1.39149e-015
rhumerus -26.8445 -5.95574 -75.3808
rradius 44.6609
rwrist 16.8914
rhand -21.4008 2.94718
rfingers 7.12502
rthumb 4.98736 -26.9741
lclavicle -2.74323e-014 1.39149e-015
lhumerus -31.0461 6.06143 81.6133
lradius 38.1632
lwrist -3.332
lhand -13.0712 25.9912
lfingers 7.12502
lthumb 13.0246 55.5646
rfemur 0.512829 0.47503 27.5701
rtibia 1.59028e-015
rfoot -5.32467 -5.08948
rtoes 19.8432
lfemur -73.6285 4.31623 -25.5432
ltibia 100.77
lfoot -14.7275 -16.3015
ltoes -20.1326
